<?xml version="1.0" standalone="no"?>
<!DOCTYPE svg PUBLIC "-//W3C//DTD SVG 20010904//EN"
 "http://www.w3.org/TR/2001/REC-SVG-20010904/DTD/svg10.dtd">
<svg version="1.0" xmlns="http://www.w3.org/2000/svg"
 width="700.000000pt" height="700.000000pt" viewBox="0 0 700.000000 700.000000"
 preserveAspectRatio="xMidYMid meet">
<metadata>
Created by potrace 1.14, written by Peter Selinger 2001-2017
</metadata>
<g transform="translate(0.000000,700.000000) scale(0.100000,-0.100000)"
fill="#000000" stroke="none">
<path d="M2404 6973 c-3 -16 -19 -77 -36 -138 -16 -60 -38 -141 -48 -180 -10
-38 -26 -97 -35 -130 -9 -33 -18 -67 -20 -75 -2 -8 -27 -100 -55 -205 -28
-104 -57 -215 -65 -245 -7 -30 -26 -98 -40 -150 -15 -52 -29 -106 -31 -120 -3
-14 -9 -36 -14 -50 -5 -14 -25 -86 -44 -160 -19 -74 -51 -196 -71 -270 -20
-74 -61 -227 -91 -340 -30 -113 -76 -288 -104 -390 -57 -215 -72 -274 -72
-277 1 -2 -4 -17 -9 -35 -10 -32 -67 -247 -74 -278 -2 -8 -11 -42 -20 -75 -10
-33 -23 -84 -30 -113 l-13 -53 47 6 c25 4 82 13 126 21 44 7 94 16 110 19 17
3 41 7 55 10 32 6 240 42 355 61 50 8 122 21 160 29 39 8 88 17 110 20 22 4
54 9 70 11 26 5 172 31 216 39 9 2 32 6 50 9 19 3 43 7 54 10 11 2 40 7 65 11
51 8 74 12 110 20 14 2 41 7 60 10 19 3 58 10 85 15 28 5 68 12 90 15 22 3 52
8 67 11 14 3 29 0 33 -5 6 -11 -21 -127 -70 -306 -24 -85 -89 -325 -140 -515
-12 -47 -32 -120 -44 -163 -29 -105 -75 -276 -102 -374 -11 -43 -41 -152 -65
-243 -25 -91 -54 -196 -64 -235 -10 -38 -26 -97 -35 -130 -26 -95 -35 -129
-40 -148 -2 -10 -7 -27 -10 -37 -3 -10 -8 -27 -10 -37 -2 -10 -14 -52 -25 -93
-24 -84 -36 -131 -73 -270 -33 -123 -98 -361 -142 -520 -33 -120 -58 -211
-109 -405 -14 -49 -50 -182 -80 -295 -31 -112 -56 -211 -56 -219 0 -23 11 -7
84 114 36 61 70 117 75 125 15 25 276 463 379 635 52 88 145 244 206 348 61
103 135 226 164 275 29 48 55 94 59 102 4 8 14 26 24 40 9 14 68 113 131 220
64 107 187 317 275 465 88 149 236 398 328 555 93 157 328 555 523 885 195
330 362 613 371 628 9 16 21 36 26 45 6 9 23 40 39 67 16 28 80 136 141 240
135 229 287 491 305 524 l12 24 -93 -6 c-52 -4 -103 -8 -114 -11 -11 -2 -45
-7 -75 -11 -30 -4 -122 -18 -205 -31 -82 -14 -166 -27 -185 -30 -19 -3 -57 -9
-85 -14 -27 -5 -70 -12 -95 -15 -25 -3 -124 -19 -220 -35 -140 -24 -420 -69
-580 -95 -30 -5 -107 -16 -135 -20 -73 -9 -123 -17 -139 -22 -16 -5 -18 -1
-12 30 4 19 27 99 52 178 52 164 193 596 201 619 3 8 7 20 9 25 1 6 86 260
188 565 102 305 186 558 186 563 0 4 -396 7 -880 7 l-880 0 -6 -27z"/>
</g>
</svg>
